<svg version="1.1" xmlns="http://www.w3.org/2000/svg" viewBox="131.55 149.32 206.47 174.23">
<path d="M0 0 C0.74958984 0.00451172 1.49917969 0.00902344 2.27148438 0.01367188 C4.11852383 0.02543646 5.96552213 0.04337135 7.8125 0.0625 C11.32179804 7.94422441 14.61398049 15.69269764 16.8125 24.0625 C17.4725 24.0625 18.1325 24.0625 18.8125 24.0625 C20.42110007 22.35954282 21.966878 20.59711766 23.484375 18.8125 C40.25788421 -0.21200041 40.25788421 -0.21200041 49.19140625 -1.56640625 C55.61220513 -1.79431457 61.72554222 -0.96648593 67.8125 1.0625 C66.9375 6.8125 66.9375 6.8125 65.8125 9.0625 C67.4625 9.0625 69.1125 9.0625 70.8125 9.0625 C70.3330816 16.50705369 67.87761112 22.73465569 65.125 29.625 C64.61686939 30.91584383 64.10940912 32.20695169 63.60253906 33.49829102 C61.68864257 38.35946887 59.74989763 43.21065198 57.8125 48.0625 C56.90470057 50.33948451 55.99699147 52.61650503 55.08935547 54.89355469 C48.68369666 70.95788504 42.25473625 87.01280172 35.8125 103.0625 C40.1025 103.3925 44.3925 103.7225 48.8125 104.0625 C47.8125 110.0625 47.8125 110.0625 46.8125 112.0625 C48.4625 112.0625 50.1125 112.0625 51.8125 112.0625 C51.31497891 117.90837284 49.72666125 122.93797493 46.8125 128.0625 C43.46474754 129.73637623 39.74003953 129.28922443 36.0625 129.3125 C34.86367188 129.3434375 34.86367188 129.3434375 33.640625 129.375 C28.59682008 129.40818293 25.18467743 128.8472 20.8125 126.0625 C14.78121538 120.03121538 9.92852971 111.69949122 9.5 103.03515625 C11.14497586 87.38732338 19.92215954 71.44751543 25.8125 57.0625 C21.96222009 58.84450687 19.5325858 61.13925405 16.5625 64.1875 C15.22445312 65.55261719 15.22445312 65.55261719 13.859375 66.9453125 C13.18390625 67.64398438 12.5084375 68.34265625 11.8125 69.0625 C10.8225 68.7325 9.8325 68.4025 8.8125 68.0625 C7.64575195 65.37866211 7.64575195 65.37866211 6.55078125 61.83984375 C6.35526169 61.21976944 6.15974213 60.59969513 5.95829773 59.96083069 C5.33572772 57.97725594 4.73024091 55.98892285 4.125 54 C3.70619169 52.65525164 3.28628332 51.31084536 2.86523438 49.96679688 C1.83675776 46.66857877 0.81974933 43.36725064 -0.1875 40.0625 C-1.87770936 44.12387669 -3.56449394 48.18666969 -5.25 52.25 C-5.51426788 52.88663574 -5.77853577 53.52327148 -6.05081177 54.17919922 C-9.36637372 62.1712573 -12.64674837 70.17613407 -15.8671875 78.20703125 C-21.78753042 92.96093704 -27.75514714 107.675267 -34.25 122.1875 C-34.76167725 123.33541016 -35.27335449 124.48332031 -35.80053711 125.66601562 C-45.01961524 146.02955082 -56.04370611 161.70108962 -77.55859375 170.15234375 C-87.68940037 173.6597404 -100.34707392 173.47739386 -110.1875 169.0625 C-113.06611907 167.62582175 -115.62319325 166.00320175 -118.1875 164.0625 C-119.06341797 163.41087891 -119.06341797 163.41087891 -119.95703125 162.74609375 C-128.46840073 155.38750569 -134.33180655 141.94481165 -135.40258789 130.82983398 C-135.91306737 121.03790948 -135.8740691 111.90243572 -131.1875 103.0625 C-130.73632812 102.18851562 -130.28515625 101.31453125 -129.8203125 100.4140625 C-118.16066481 80.16920158 -97.55558113 67.93289872 -75.5625 61.8125 C-64.24947433 59.01051222 -53.86124654 57.75166059 -42.1875 58.0625 C-43.0625 64.8125 -43.0625 64.8125 -44.1875 67.0625 C-40.72551417 66.14072604 -39.43700688 65.45732487 -37.49316406 62.38134766 C-36.73084473 60.634104 -36.73084473 60.634104 -35.953125 58.8515625 C-35.66439514 58.19886383 -35.37566528 57.54616516 -35.07818604 56.87368774 C-34.09007695 54.61298438 -33.13543726 52.34033275 -32.1875 50.0625 C-31.83228271 49.2118396 -31.47706543 48.3611792 -31.11108398 47.48474121 C-27.92422548 39.81746923 -24.82228476 32.11620989 -21.71972656 24.41455078 C-20.54047877 21.49113754 -19.35632468 18.56974614 -18.171875 15.6484375 C-17.81559021 14.75885345 -17.45930542 13.86926941 -17.09222412 12.95272827 C-13.61041916 4.36954614 -13.61041916 4.36954614 -11.1875 1.0625 C-7.42449626 -0.19183458 -3.91539091 -0.04445422 0 0 Z M-102.18359375 108.6015625 C-107.43797382 115.05430996 -113.99788793 124.30673881 -113.25 133.0625 C-112.5653886 137.36812835 -110.41816054 139.3367261 -107.00390625 141.875 C-101.6276653 145.38978978 -96.51156859 146.03002093 -90.1875 145.0625 C-73.69013643 139.54164315 -63.47889597 124.59939176 -55.921875 109.70703125 C-49.23567385 97.34177729 -49.23567385 97.34177729 -46.1875 84.0625 C-67.00292004 83.17041057 -88.09083631 93.80806021 -102.18359375 108.6015625 Z " fill="#000000" transform="translate(267.1875,150.9375)"/>
<path d="M0 0 C1.35073608 0.00507568 1.35073608 0.00507568 2.72875977 0.01025391 C3.41510498 0.01460449 4.1014502 0.01895508 4.80859375 0.0234375 C5.9834719 4.27121125 7.14707075 8.52199424 8.30859375 12.7734375 C8.64246094 13.98 8.97632813 15.1865625 9.3203125 16.4296875 C9.79404297 18.16992188 9.79404297 18.16992188 10.27734375 19.9453125 C10.57060547 21.01362305 10.86386719 22.08193359 11.16601562 23.18261719 C11.80859375 26.0234375 11.80859375 26.0234375 11.80859375 30.0234375 C16.91320973 25.78244235 21.64713437 21.23871659 26.30859375 16.5234375 C30.47866578 12.30538535 34.68312234 8.21652039 39.22265625 4.390625 C40.85934502 3.06219051 40.85934502 3.06219051 42.15234375 1.359375 C44.61240646 -0.62492086 46.57476175 -0.30408948 49.68359375 -0.2265625 C51.22660156 -0.20335937 51.22660156 -0.20335937 52.80078125 -0.1796875 C55.55924183 0.00659815 58.11719611 0.40769339 60.80859375 1.0234375 C60.1268548 5.17031785 58.82203399 8.82935333 57.28125 12.734375 C57.0205925 13.39920898 56.759935 14.06404297 56.49137878 14.74902344 C55.92155418 16.20158482 55.34993141 17.65344179 54.7767334 19.10467529 C53.20131653 23.09481827 51.64054344 27.09069091 50.078125 31.0859375 C49.5741066 32.37339371 49.5741066 32.37339371 49.05990601 33.68685913 C45.08385743 43.85465401 41.17246402 54.04720763 37.26754761 64.24249268 C36.46391747 66.34034972 35.65966082 68.43796689 34.85476685 70.53533936 C33.71821483 73.49699529 32.58343728 76.45932475 31.44921875 79.421875 C31.11021042 80.30480225 30.77120209 81.18772949 30.42192078 82.09741211 C26.7983613 90.79691396 26.7983613 90.79691396 25.80859375 100.0234375 C28.83890408 101.53859267 32.10729085 101.67168391 35.43359375 102.0859375 C36.49320312 102.22225586 36.49320312 102.22225586 37.57421875 102.36132812 C39.31859785 102.58526869 41.06354509 102.80477568 42.80859375 103.0234375 C42.35950314 104.50543652 41.89902811 105.98398986 41.43359375 107.4609375 C41.17835938 108.28464844 40.923125 109.10835938 40.66015625 109.95703125 C39.80859375 112.0234375 39.80859375 112.0234375 37.80859375 113.0234375 C30.06091249 113.87519104 22.77087066 112.28015602 16.24609375 107.9609375 C13.15327336 104.23369241 13.43117541 102.38560551 13.55633545 97.71646118 C13.95247487 93.48741164 15.13726316 89.73735865 16.56640625 85.75390625 C16.87264923 84.86938278 17.17889221 83.98485931 17.49441528 83.0735321 C21.88122015 70.65233341 26.91378782 58.46766825 31.8928833 46.27502441 C32.96330563 43.64999028 34.02809161 41.02268669 35.09266472 38.39527607 C37.28775513 32.97778232 39.48699396 27.5619733 41.69482422 22.1496582 C42.0800827 21.20484085 42.46534119 20.2600235 42.86227417 19.28657532 C43.4649117 17.84535839 44.10998396 16.42065709 44.80859375 15.0234375 C36.32176172 21.37425787 28.9920261 28.68962278 21.6237793 36.2824707 C17.26685361 40.73306467 13.01630553 44.59804419 7.80859375 48.0234375 C5.17725453 45.39209828 4.84078871 43.14260073 3.86328125 39.5546875 C3.60117355 38.60051941 3.60117355 38.60051941 3.33377075 37.6270752 C2.96593444 36.28300639 2.60133736 34.93804749 2.23974609 33.59228516 C1.68523691 31.52954996 1.12085787 29.4697178 0.5546875 27.41015625 C-2.19140625 17.33872655 -2.19140625 17.33872655 -2.19140625 15.0234375 C-4.71846535 16.28696705 -4.81753436 17.10806472 -5.83276367 19.6965332 C-6.1451297 20.48251892 -6.45749573 21.26850464 -6.77932739 22.07830811 C-7.1151181 22.94320862 -7.45090881 23.80810913 -7.796875 24.69921875 C-8.15296844 25.59932678 -8.50906189 26.49943481 -8.87594604 27.42681885 C-9.64622974 29.375148 -10.41354508 31.32465271 -11.17825317 33.275177 C-13.20104155 38.43176294 -15.24792785 43.57877023 -17.29296875 48.7265625 C-17.91223991 50.28746361 -17.91223991 50.28746361 -18.54402161 51.87989807 C-54.08036953 141.31250921 -54.08036953 141.31250921 -79.08203125 152.29296875 C-90.46384744 156.59919065 -101.74177724 157.93306806 -113.19140625 153.0234375 C-122.57320528 148.15036713 -128.19494707 141.15502795 -131.49609375 131.140625 C-134.34758564 118.35697036 -131.72179763 106.73580995 -125.25390625 95.5859375 C-111.85387938 75.81446929 -91.35303577 64.64979391 -68.19140625 60.0234375 C-61.21827015 58.83870568 -54.20872212 57.90351699 -47.19140625 57.0234375 C-47.64223094 58.48410949 -48.10234162 59.94191782 -48.56640625 61.3984375 C-48.94925781 62.61660156 -48.94925781 62.61660156 -49.33984375 63.859375 C-50.19140625 66.0234375 -50.19140625 66.0234375 -52.19140625 68.0234375 C-54.410478 68.36732014 -56.64343107 68.6233688 -58.87890625 68.8359375 C-77.2162204 70.97090743 -98.15062372 79.39082359 -110.43359375 93.62109375 C-118.54498289 104.18372686 -121.85500815 113.56996129 -120.19140625 127.0234375 C-118.17804496 133.62040854 -114.94699265 138.2646872 -109.19140625 142.0234375 C-102.748236 145.24502263 -94.88586507 145.05659452 -88.0625 143.1484375 C-69.66918369 136.00722657 -61.0766631 121.06005637 -53.19140625 104.0234375 C-52.86769043 103.33975098 -52.54397461 102.65606445 -52.21044922 101.95166016 C-44.93812133 86.57987108 -38.74672553 70.74095567 -32.40003967 54.9727478 C-28.47929279 45.24038425 -24.50960248 35.52805993 -20.53610229 25.81713867 C-19.32927001 22.8673793 -18.12370795 19.91710294 -16.91821289 16.96679688 C-16.17863859 15.15881718 -15.43897826 13.35087267 -14.69921875 11.54296875 C-14.35826675 10.70828568 -14.01731476 9.8736026 -13.66603088 9.0136261 C-11.30626162 3.25314824 -11.30626162 3.25314824 -10.19140625 1.0234375 C-6.80833636 -0.06787537 -3.51828218 -0.01714841 0 0 Z " fill="#ffffff" transform="translate(268.19140625,154.9765625)"/>
</svg>